<mxfile host="app.diagrams.net" agent="Mozilla/5.0 (Windows NT 10.0; Win64; x64) AppleWebKit/537.36 (KHTML, like Gecko) Chrome/131.0.0.0 Safari/537.36" version="24.8.9">
  <diagram name="Page-1" id="lg2QXgbh5kX-4t9Pvs3S">
    <mxGraphModel dx="1050" dy="522" grid="1" gridSize="10" guides="1" tooltips="1" connect="1" arrows="1" fold="1" page="1" pageScale="1" pageWidth="827" pageHeight="1169" math="0" shadow="0">
      <root>
        <mxCell id="0" />
        <mxCell id="1" parent="0" />
        <mxCell id="wLvA1spvq25FFhIwy418-7" value="" style="edgeStyle=orthogonalEdgeStyle;rounded=0;orthogonalLoop=1;jettySize=auto;html=1;" edge="1" parent="1" source="wLvA1spvq25FFhIwy418-1" target="wLvA1spvq25FFhIwy418-2">
          <mxGeometry relative="1" as="geometry" />
        </mxCell>
        <mxCell id="wLvA1spvq25FFhIwy418-1" value="START" style="ellipse;whiteSpace=wrap;html=1;" vertex="1" parent="1">
          <mxGeometry x="354" y="20" width="120" height="60" as="geometry" />
        </mxCell>
        <mxCell id="wLvA1spvq25FFhIwy418-8" value="" style="edgeStyle=orthogonalEdgeStyle;rounded=0;orthogonalLoop=1;jettySize=auto;html=1;" edge="1" parent="1" source="wLvA1spvq25FFhIwy418-2" target="wLvA1spvq25FFhIwy418-3">
          <mxGeometry relative="1" as="geometry" />
        </mxCell>
        <mxCell id="wLvA1spvq25FFhIwy418-2" value="รับข้อความ &lt;i&gt;First Name&lt;/i&gt;" style="shape=parallelogram;perimeter=parallelogramPerimeter;whiteSpace=wrap;html=1;fixedSize=1;" vertex="1" parent="1">
          <mxGeometry x="281" y="120" width="266" height="40" as="geometry" />
        </mxCell>
        <mxCell id="wLvA1spvq25FFhIwy418-9" value="" style="edgeStyle=orthogonalEdgeStyle;rounded=0;orthogonalLoop=1;jettySize=auto;html=1;" edge="1" parent="1" source="wLvA1spvq25FFhIwy418-3" target="wLvA1spvq25FFhIwy418-4">
          <mxGeometry relative="1" as="geometry" />
        </mxCell>
        <mxCell id="wLvA1spvq25FFhIwy418-3" value="รับข้อความ &lt;i&gt;Last Name&lt;/i&gt;" style="shape=parallelogram;perimeter=parallelogramPerimeter;whiteSpace=wrap;html=1;fixedSize=1;" vertex="1" parent="1">
          <mxGeometry x="281" y="220" width="266" height="40" as="geometry" />
        </mxCell>
        <mxCell id="wLvA1spvq25FFhIwy418-10" value="" style="edgeStyle=orthogonalEdgeStyle;rounded=0;orthogonalLoop=1;jettySize=auto;html=1;" edge="1" parent="1" source="wLvA1spvq25FFhIwy418-4" target="wLvA1spvq25FFhIwy418-5">
          <mxGeometry relative="1" as="geometry" />
        </mxCell>
        <mxCell id="wLvA1spvq25FFhIwy418-4" value="แสดง &quot;&lt;i&gt;First Name&lt;/i&gt; &lt;i&gt;Last Name&lt;/i&gt; TC, RMUTL, Chiang Mai, Thailand&quot;&amp;nbsp;" style="shape=parallelogram;perimeter=parallelogramPerimeter;whiteSpace=wrap;html=1;fixedSize=1;" vertex="1" parent="1">
          <mxGeometry x="204" y="320" width="420" height="40" as="geometry" />
        </mxCell>
        <mxCell id="wLvA1spvq25FFhIwy418-5" value="END" style="ellipse;whiteSpace=wrap;html=1;" vertex="1" parent="1">
          <mxGeometry x="354" y="400" width="120" height="60" as="geometry" />
        </mxCell>
      </root>
    </mxGraphModel>
  </diagram>
</mxfile>
